<svg width="48" height="48" viewBox="0 0 200 200" version="1.1" xmlns="http://www.w3.org/2000/svg" xmlns:xlink="http://www.w3.org/1999/xlink" xml:space="preserve" xmlns:serif="http://www.serif.com/" style="fill-rule:evenodd;clip-rule:evenodd;stroke-linejoin:round;stroke-miterlimit:2;"><g><rect x="0" y="0" width="100" height="200" style="fill:#535fd7;fill-opacity:0.32;"/><rect x="116.667" y="0" width="83.333" height="83.333" style="fill:#2feafc;fill-opacity:0.16;"/><path d="M153.333,33.333l-80,0c-7.366,0 -13.333,5.967 -13.333,13.334l0,80c0,7.366 5.967,13.333 13.333,13.333l80,0c7.367,0 13.334,-5.967 13.334,-13.333l-0,-80c-0,-7.367 -5.967,-13.334 -13.334,-13.334Zm-6.666,60l-66.667,0l0,-13.333l66.667,0l-0,13.333Zm-26.667,26.667l-40,0l0,-13.333l40,-0l0,13.333Zm26.667,-53.333l-66.667,-0l0,-13.334l66.667,0l-0,13.334Z" style="fill:#7c85e1;fill-rule:nonzero;"/><path d="M46.667,60l-13.334,0l0,93.333c0,7.367 5.967,13.334 13.334,13.334l93.333,-0l0,-13.334l-93.333,0l-0,-93.333Z" style="fill:#61effd;fill-rule:nonzero;"/></g></svg>